<?xml version="1.0" standalone="no"?>
<!DOCTYPE svg PUBLIC "-//W3C//DTD SVG 20010904//EN"
 "http://www.w3.org/TR/2001/REC-SVG-20010904/DTD/svg10.dtd">
<svg version="1.0" xmlns="http://www.w3.org/2000/svg"
 width="500.000000pt" height="500.000000pt" viewBox="0 0 500.000000 500.000000"
 preserveAspectRatio="xMidYMid meet">

<g transform="translate(0.000000,500.000000) scale(0.100000,-0.100000)"
fill="#000000" stroke="none">
<path d="M2365 4865 c-60 -29 -297 -143 -525 -253 -228 -110 -626 -301 -885
-426 -613 -294 -618 -296 -632 -326 -10 -20 -13 -417 -13 -1827 l0 -1803 -115
0 -115 0 0 -75 0 -75 2420 0 2420 0 0 75 0 75 -135 0 c-74 0 -135 2 -135 4 0
2 7 20 15 40 l15 36 80 0 80 0 0 326 0 325 -74 202 c-41 111 -99 264 -128 339
l-53 138 -337 0 -338 0 0 -310 0 -310 -40 0 -40 0 0 545 0 545 -625 0 -625 0
0 -545 0 -544 -115 -3 -116 -3 0 -350 0 -350 119 -3 119 -3 16 -33 c8 -19 13
-37 10 -40 -4 -3 -187 -6 -408 -6 l-402 0 -7 183 c-3 100 -6 346 -5 547 l1
365 -384 3 -385 2 -6 183 c-8 253 -6 821 3 827 5 3 675 4 1489 2 l1481 -2 0
-310 0 -310 75 0 75 0 0 700 0 700 -1640 0 -1640 0 0 -895 0 -895 -155 0 -155
0 -2 -547 -3 -548 -38 -3 -37 -3 0 1776 0 1776 108 51 c59 29 515 248 1014
489 l908 437 966 -484 c532 -266 973 -489 980 -495 12 -10 14 -185 14 -1035
l0 -1024 75 0 75 0 0 1060 c0 726 -3 1066 -11 1082 -8 18 -253 145 -1045 541
-569 284 -1044 517 -1057 516 -12 0 -71 -25 -132 -54z m1623 -1945 c2 -24 1
-59 -3 -77 l-6 -33 -1479 0 -1479 0 -6 33 c-5 25 -2 104 4 125 1 1 668 1 1484
0 l1482 -3 3 -45z m0 -310 c2 -24 1 -59 -3 -77 l-6 -33 -1479 0 -1478 0 -7 29
c-6 29 -5 110 2 124 2 4 671 6 1486 5 l1482 -3 3 -45z m-1018 -855 l0 -195
233 2 232 3 3 193 2 192 115 0 115 0 0 -465 0 -465 -470 0 -470 0 0 465 0 465
120 0 120 0 0 -195z m310 80 l0 -115 -80 0 -80 0 0 115 0 115 80 0 80 0 0
-115z m1206 -376 c27 -48 24 -49 -137 -49 l-151 0 -29 -29 -29 -29 0 -182 c0
-179 0 -181 25 -205 l24 -25 246 0 c190 0 247 -3 251 -13 2 -7 3 -114 2 -237
l-3 -225 -21 46 c-30 64 -88 125 -148 157 -44 23 -63 27 -141 27 -78 0 -97 -4
-141 -27 -60 -32 -119 -94 -146 -154 l-19 -44 -438 0 -438 0 -18 46 c-24 64
-101 137 -172 164 -72 27 -174 24 -244 -7 -61 -27 -121 -88 -151 -152 -22 -50
-24 -51 -65 -51 l-43 0 0 195 0 195 780 0 780 0 0 309 0 310 33 3 c17 2 110 3
206 2 172 -1 174 -1 187 -25z m106 -284 c15 -38 27 -73 28 -77 0 -5 -71 -8
-159 -8 l-158 0 -6 48 c-4 37 -3 92 2 110 1 1 61 1 133 0 l132 -3 28 -70z
m-3652 -200 l0 -195 233 2 232 3 0 190 0 190 118 3 117 3 0 -471 0 -470 -467
2 -468 3 -3 468 -2 467 120 0 120 0 0 -195z m310 80 l0 -115 -80 0 -80 0 0
115 0 115 80 0 80 0 0 -115z m1707 -525 c99 -44 120 -171 42 -250 -62 -61
-156 -60 -217 3 -77 79 -57 198 41 246 52 26 80 26 134 1z m1503 -9 c86 -62
93 -188 15 -249 -117 -92 -278 6 -251 153 9 45 58 102 100 115 41 12 105 4
136 -19z m-377 -233 c2 -13 8 -31 12 -40 7 -17 -19 -18 -459 -18 -256 0 -466
4 -466 9 0 4 5 22 11 40 l11 31 443 0 443 0 5 -22z"/>
<path d="M3280 1210 l0 -40 40 0 40 0 0 40 0 40 -40 0 -40 0 0 -40z"/>
<path d="M3440 1210 l0 -41 38 3 c35 3 37 5 37 38 0 33 -2 35 -37 38 l-38 3 0
-41z"/>
<path d="M1250 430 l0 -40 40 0 40 0 0 40 0 40 -40 0 -40 0 0 -40z"/>
<path d="M1410 430 c0 -39 1 -40 35 -40 34 0 35 1 35 40 0 39 -1 40 -35 40
-34 0 -35 -1 -35 -40z"/>
<path d="M2853 458 c-49 -24 -49 -101 1 -133 21 -14 31 -15 60 -5 65 21 71
111 10 139 -30 13 -42 13 -71 -1z"/>
<path d="M4325 445 c-40 -39 -29 -106 20 -125 30 -11 82 5 95 30 27 50 -11
120 -65 120 -14 0 -37 -11 -50 -25z"/>
<path d="M1177 3903 c-4 -3 -7 -145 -7 -315 l0 -308 1330 0 1330 0 -2 313 -3
312 -1321 3 c-726 1 -1324 -1 -1327 -5z m2493 -308 l0 -155 -1170 0 -1170 0 0
155 0 155 1170 0 1170 0 0 -155z"/>
</g>
</svg>
