<?xml version="1.0" encoding="UTF-8"?>
<svg version="1.1" xmlns="http://www.w3.org/2000/svg" width="512" height="512">
<path d="M0 0 C0 163.68 0 327.36 0 496 C-100.32 496 -200.64 496 -304 496 C-304 432.64 -304 369.28 -304 304 C-298.72 304 -293.44 304 -288 304 C-288 362.08 -288 420.16 -288 480 C-198.24 480 -108.48 480 -16 480 C-16 326.88 -16 173.76 -16 16 C-79.36 16 -142.72 16 -208 16 C-208 42.4 -208 68.8 -208 96 C-234.4 96 -260.8 96 -288 96 C-288 127.68 -288 159.36 -288 192 C-293.28 192 -298.56 192 -304 192 C-311.09665416 146.51747115 -314.15986455 99.56184181 -293.2890625 57.28125 C-218.8510285 -41.78676396 -125.04427667 0 0 0 Z M-229.70336914 33.57397461 C-230.1911937 34.06004684 -230.67901825 34.54611908 -231.18162537 35.04692078 C-232.80200346 36.66287848 -234.41867402 38.28248957 -236.03515625 39.90234375 C-237.15459273 41.02110725 -238.27417767 42.13972221 -239.39390564 43.25819397 C-241.74348405 45.60629515 -244.09123654 47.95620326 -246.43774414 50.30737305 C-249.45313997 53.32846617 -252.47300166 56.34504899 -255.49424076 59.3602972 C-257.80793206 61.67038356 -260.11924676 63.98283587 -262.42983818 66.29602242 C-263.54273387 67.40958756 -264.65637938 68.52240382 -265.77076912 69.6344738 C-267.32494715 71.1861264 -268.87590695 72.74092415 -270.42602539 74.29663086 C-271.31125381 75.18265488 -272.19648224 76.06867889 -273.10853577 76.98155212 C-275.11396355 78.66058399 -275.11396355 78.66058399 -275 80 C-258.17 80 -241.34 80 -224 80 C-224 63.17 -224 46.34 -224 29 C-226.1377607 29 -228.35779669 32.22961039 -229.70336914 33.57397461 Z " fill="#000000" transform="translate(504,8)"/>
<path d="M0 0 C42.24 0 84.48 0 128 0 C128 5.28 128 10.56 128 16 C91.04 16 54.08 16 16 16 C16 63.52 16 111.04 16 160 C0.16 160 -15.68 160 -32 160 C-32 181.12 -32 202.24 -32 224 C-68.96 224 -105.92 224 -144 224 C-144 176.48 -144 128.96 -144 80 C-107.04 80 -70.08 80 -32 80 C-32 101.12 -32 122.24 -32 144 C-21.44 144 -10.88 144 0 144 C0 96.48 0 48.96 0 0 Z M-128 96 C-128 132.96 -128 169.92 -128 208 C-101.6 208 -75.2 208 -48 208 C-48 171.04 -48 134.08 -48 96 C-74.4 96 -100.8 96 -128 96 Z " fill="#000000" transform="translate(152,280)"/>
<path d="M0 0 C36.96 0 73.92 0 112 0 C112 21.12 112 42.24 112 64 C127.84 64 143.68 64 160 64 C160 111.52 160 159.04 160 208 C196.96 208 233.92 208 272 208 C272 213.28 272 218.56 272 224 C229.76 224 187.52 224 144 224 C144 176.48 144 128.96 144 80 C133.44 80 122.88 80 112 80 C112 101.12 112 122.24 112 144 C75.04 144 38.08 144 0 144 C0 96.48 0 48.96 0 0 Z M16 16 C16 52.96 16 89.92 16 128 C42.4 128 68.8 128 96 128 C96 91.04 96 54.08 96 16 C69.6 16 43.2 16 16 16 Z " fill="#000000" transform="translate(8,8)"/>
<path d="M0 0 C15.18 0 30.36 0 46 0 C51 15 51 15 51 18 C52.18078125 17.41089844 53.3615625 16.82179687 54.578125 16.21484375 C56.13511383 15.45510823 57.69242236 14.69602765 59.25 13.9375 C60.02730469 13.54755859 60.80460937 13.15761719 61.60546875 12.75585938 C62.35957031 12.39169922 63.11367188 12.02753906 63.890625 11.65234375 C64.92751465 11.14175415 64.92751465 11.14175415 65.98535156 10.62084961 C68.47019104 9.8551023 69.55732872 10.16527194 72 11 C73.58869934 12.18756104 73.58869934 12.18756104 75.13208008 13.69628906 C75.71560745 14.26067688 76.29913483 14.8250647 76.90034485 15.40655518 C77.51717636 16.02004822 78.13400787 16.63354126 78.76953125 17.265625 C79.40992844 17.89603699 80.05032562 18.52644897 80.71012878 19.17596436 C82.05964138 20.51030231 83.40512058 21.84873015 84.74682617 23.19091797 C86.80685784 25.24437585 88.88966991 27.27265681 90.97460938 29.30078125 C92.28271601 30.60008822 93.58940646 31.90082285 94.89453125 33.203125 C95.52148392 33.80852112 96.14843658 34.41391724 96.79438782 35.03765869 C101.00422303 39.31593103 101.00422303 39.31593103 100.98339844 42.68920898 C100.65887695 43.45177002 100.33435547 44.21433105 100 45 C99.62572876 45.96256714 99.62572876 45.96256714 99.24389648 46.94458008 C98.95587158 47.54681396 98.66784668 48.14904785 98.37109375 48.76953125 C97.90219727 49.76049805 97.90219727 49.76049805 97.42382812 50.77148438 C97.09833984 51.44501953 96.77285156 52.11855469 96.4375 52.8125 C96.10814453 53.50537109 95.77878906 54.19824219 95.43945312 54.91210938 C94.63127749 56.61044948 93.81631623 58.30555769 93 60 C93.81791016 60.16435547 93.81791016 60.16435547 94.65234375 60.33203125 C95.40644531 60.49058594 96.16054688 60.64914063 96.9375 60.8125 C97.66839844 60.96332031 98.39929688 61.11414063 99.15234375 61.26953125 C103.1628607 62.29829211 107.072108 63.69070267 111 65 C111 80.18 111 95.36 111 111 C96 116 96 116 93 116 C93.58910156 117.18078125 94.17820312 118.3615625 94.78515625 119.578125 C95.54489177 121.13511383 96.30397235 122.69242236 97.0625 124.25 C97.45244141 125.02730469 97.84238281 125.80460937 98.24414062 126.60546875 C98.79038086 127.73662109 98.79038086 127.73662109 99.34765625 128.890625 C99.85824585 129.92751465 99.85824585 129.92751465 100.37915039 130.98535156 C101.1448977 133.47019104 100.83472806 134.55732872 100 137 C98.81243896 138.58869934 98.81243896 138.58869934 97.30371094 140.13208008 C96.45712921 141.00737114 96.45712921 141.00737114 95.59344482 141.90034485 C94.97995178 142.51717636 94.36645874 143.13400787 93.734375 143.76953125 C93.10396301 144.40992844 92.47355103 145.05032562 91.82403564 145.71012878 C90.48969769 147.05964138 89.15126985 148.40512058 87.80908203 149.74682617 C85.75562415 151.80685784 83.72734319 153.88966991 81.69921875 155.97460938 C80.39991178 157.28271601 79.09917715 158.58940646 77.796875 159.89453125 C77.19147888 160.52148392 76.58608276 161.14843658 75.96234131 161.79438782 C71.68406897 166.00422303 71.68406897 166.00422303 68.31079102 165.98339844 C67.54822998 165.65887695 66.78566895 165.33435547 66 165 C65.35828857 164.75048584 64.71657715 164.50097168 64.05541992 164.24389648 C63.15206909 163.81185913 63.15206909 163.81185913 62.23046875 163.37109375 C61.23950195 162.90219727 61.23950195 162.90219727 60.22851562 162.42382812 C59.55498047 162.09833984 58.88144531 161.77285156 58.1875 161.4375 C57.49462891 161.10814453 56.80175781 160.77878906 56.08789062 160.43945312 C54.38955052 159.63127749 52.69444231 158.81631623 51 158 C50.83564453 158.81791016 50.83564453 158.81791016 50.66796875 159.65234375 C50.50941406 160.40644531 50.35085938 161.16054688 50.1875 161.9375 C49.96126953 163.03384766 49.96126953 163.03384766 49.73046875 164.15234375 C48.70170789 168.1628607 47.30929733 172.072108 46 176 C30.82 176 15.64 176 0 176 C-5 161 -5 161 -5 158 C-6.18078125 158.58910156 -7.3615625 159.17820312 -8.578125 159.78515625 C-10.13511383 160.54489177 -11.69242236 161.30397235 -13.25 162.0625 C-14.02730469 162.45244141 -14.80460937 162.84238281 -15.60546875 163.24414062 C-16.73662109 163.79038086 -16.73662109 163.79038086 -17.890625 164.34765625 C-18.58188477 164.68804932 -19.27314453 165.02844238 -19.98535156 165.37915039 C-22.47019104 166.1448977 -23.55732872 165.83472806 -26 165 C-27.58869934 163.81243896 -27.58869934 163.81243896 -29.13208008 162.30371094 C-29.71560745 161.73932312 -30.29913483 161.1749353 -30.90034485 160.59344482 C-31.51717636 159.97995178 -32.13400787 159.36645874 -32.76953125 158.734375 C-33.40992844 158.10396301 -34.05032562 157.47355103 -34.71012878 156.82403564 C-36.05964138 155.48969769 -37.40512058 154.15126985 -38.74682617 152.80908203 C-40.80685784 150.75562415 -42.88966991 148.72734319 -44.97460938 146.69921875 C-46.28271601 145.39991178 -47.58940646 144.09917715 -48.89453125 142.796875 C-49.83496025 141.88878082 -49.83496025 141.88878082 -50.79438782 140.96234131 C-55.00422303 136.68406897 -55.00422303 136.68406897 -54.98339844 133.31079102 C-54.65887695 132.54822998 -54.33435547 131.78566895 -54 131 C-53.75048584 130.35828857 -53.50097168 129.71657715 -53.24389648 129.05541992 C-52.95587158 128.45318604 -52.66784668 127.85095215 -52.37109375 127.23046875 C-51.90219727 126.23950195 -51.90219727 126.23950195 -51.42382812 125.22851562 C-50.9355957 124.21821289 -50.9355957 124.21821289 -50.4375 123.1875 C-49.9434668 122.14819336 -49.9434668 122.14819336 -49.43945312 121.08789062 C-48.63127749 119.38955052 -47.81631623 117.69444231 -47 116 C-47.54527344 115.89042969 -48.09054687 115.78085937 -48.65234375 115.66796875 C-49.78349609 115.43013672 -49.78349609 115.43013672 -50.9375 115.1875 C-52.03384766 114.96126953 -52.03384766 114.96126953 -53.15234375 114.73046875 C-57.1628607 113.70170789 -61.072108 112.30929733 -65 111 C-65 95.82 -65 80.64 -65 65 C-50 60 -50 60 -47 60 C-47.58910156 58.81921875 -48.17820312 57.6384375 -48.78515625 56.421875 C-49.54489177 54.86488617 -50.30397235 53.30757764 -51.0625 51.75 C-51.64741211 50.58404297 -51.64741211 50.58404297 -52.24414062 49.39453125 C-52.60830078 48.64042969 -52.97246094 47.88632813 -53.34765625 47.109375 C-53.68804932 46.41811523 -54.02844238 45.72685547 -54.37915039 45.01464844 C-55.1448977 42.52980896 -54.83472806 41.44267128 -54 39 C-52.81243896 37.41130066 -52.81243896 37.41130066 -51.30371094 35.86791992 C-50.73932312 35.28439255 -50.1749353 34.70086517 -49.59344482 34.09965515 C-48.97995178 33.48282364 -48.36645874 32.86599213 -47.734375 32.23046875 C-47.10396301 31.59007156 -46.47355103 30.94967438 -45.82403564 30.28987122 C-44.48969769 28.94035862 -43.15126985 27.59487942 -41.80908203 26.25317383 C-39.75562415 24.19314216 -37.72734319 22.11033009 -35.69921875 20.02539062 C-34.39991178 18.71728399 -33.09917715 17.41059354 -31.796875 16.10546875 C-31.19147888 15.47851608 -30.58608276 14.85156342 -29.96234131 14.20561218 C-25.68406897 9.99577697 -25.68406897 9.99577697 -22.31079102 10.01660156 C-21.54822998 10.34112305 -20.78566895 10.66564453 -20 11 C-19.35828857 11.24951416 -18.71657715 11.49902832 -18.05541992 11.75610352 C-17.15206909 12.18814087 -17.15206909 12.18814087 -16.23046875 12.62890625 C-15.23950195 13.09780273 -15.23950195 13.09780273 -14.22851562 13.57617188 C-13.55498047 13.90166016 -12.88144531 14.22714844 -12.1875 14.5625 C-11.49462891 14.89185547 -10.80175781 15.22121094 -10.08789062 15.56054688 C-8.38955052 16.36872251 -6.69444231 17.18368377 -5 18 C-4.89042969 17.45472656 -4.78085937 16.90945312 -4.66796875 16.34765625 C-4.50941406 15.59355469 -4.35085938 14.83945313 -4.1875 14.0625 C-4.03667969 13.33160156 -3.88585937 12.60070312 -3.73046875 11.84765625 C-2.70170789 7.8371393 -1.30929733 3.927892 0 0 Z M13 16 C12.195625 18.8875 11.39125 21.775 10.5625 24.75 C7.98832842 33.05848714 7.98832842 33.05848714 4.7734375 36.12109375 C0.52517783 38.06051664 -2.49520296 38.29868023 -7 37 C-10.10970653 35.45127625 -13.12755301 33.77615891 -16.16015625 32.08203125 C-18.82877292 30.76152274 -18.82877292 30.76152274 -21.01171875 31.47265625 C-23.82357689 33.63264944 -26.29099695 36.08209396 -28.75 38.625 C-29.25660156 39.140625 -29.76320313 39.65625 -30.28515625 40.1875 C-31.52803902 41.45383339 -32.76465276 42.7263144 -34 44 C-32.4834308 48.89146966 -30.42158916 53.08488468 -27.92578125 57.53515625 C-26.7707211 60.61044297 -27.01322903 61.88217435 -28 65 C-28.32613281 66.18722656 -28.65226562 67.37445313 -28.98828125 68.59765625 C-31.82912249 73.40226348 -34.99780008 74.01829464 -40.1875 75.4375 C-44.5496875 76.7059375 -44.5496875 76.7059375 -49 78 C-49 84.6 -49 91.2 -49 98 C-46.1125 98.804375 -43.225 99.60875 -40.25 100.4375 C-31.94151286 103.01167158 -31.94151286 103.01167158 -28.87890625 106.2265625 C-26.93948336 110.47482217 -26.70131977 113.49520296 -28 118 C-29.54872375 121.10970653 -31.22384109 124.12755301 -32.91796875 127.16015625 C-34.23847726 129.82877292 -34.23847726 129.82877292 -33.52734375 132.01171875 C-31.36735056 134.82357689 -28.91790604 137.29099695 -26.375 139.75 C-25.859375 140.25660156 -25.34375 140.76320313 -24.8125 141.28515625 C-23.54616661 142.52803902 -22.2736856 143.76465276 -21 145 C-16.10853034 143.4834308 -11.91511532 141.42158916 -7.46484375 138.92578125 C-4.38955703 137.7707211 -3.11782565 138.01322903 0 139 C1.18722656 139.32613281 2.37445313 139.65226562 3.59765625 139.98828125 C8.40226348 142.82912249 9.01829464 145.99780008 10.4375 151.1875 C11.283125 154.095625 12.12875 157.00375 13 160 C19.6 160 26.2 160 33 160 C33.804375 157.1125 34.60875 154.225 35.4375 151.25 C38.01167158 142.94151286 38.01167158 142.94151286 41.2265625 139.87890625 C45.47482217 137.93948336 48.49520296 137.70131977 53 139 C56.10970653 140.54872375 59.12755301 142.22384109 62.16015625 143.91796875 C64.82877292 145.23847726 64.82877292 145.23847726 67.01171875 144.52734375 C69.82357689 142.36735056 72.29099695 139.91790604 74.75 137.375 C75.25660156 136.859375 75.76320313 136.34375 76.28515625 135.8125 C77.52803902 134.54616661 78.76465276 133.2736856 80 132 C78.4834308 127.10853034 76.42158916 122.91511532 73.92578125 118.46484375 C72.7707211 115.38955703 73.01322903 114.11782565 74 111 C74.32613281 109.81277344 74.65226562 108.62554687 74.98828125 107.40234375 C77.82912249 102.59773652 80.99780008 101.98170536 86.1875 100.5625 C89.095625 99.716875 92.00375 98.87125 95 98 C95 91.4 95 84.8 95 78 C92.1125 77.195625 89.225 76.39125 86.25 75.5625 C77.94151286 72.98832842 77.94151286 72.98832842 74.87890625 69.7734375 C72.93948336 65.52517783 72.70131977 62.50479704 74 58 C75.54872375 54.89029347 77.22384109 51.87244699 78.91796875 48.83984375 C80.23847726 46.17122708 80.23847726 46.17122708 79.52734375 43.98828125 C77.36735056 41.17642311 74.91790604 38.70900305 72.375 36.25 C71.859375 35.74339844 71.34375 35.23679687 70.8125 34.71484375 C69.54616661 33.47196098 68.2736856 32.23534724 67 31 C62.10853034 32.5165692 57.91511532 34.57841084 53.46484375 37.07421875 C50.38955703 38.2292789 49.11782565 37.98677097 46 37 C44.81277344 36.67386719 43.62554687 36.34773438 42.40234375 36.01171875 C37.59773652 33.17087751 36.98170536 30.00219992 35.5625 24.8125 C34.716875 21.904375 33.87125 18.99625 33 16 C26.4 16 19.8 16 13 16 Z " fill="#000000" transform="translate(361,168)"/>
<path d="M0 0 C36.96 0 73.92 0 112 0 C112 21.12 112 42.24 112 64 C164.8 64 217.6 64 272 64 C272 69.28 272 74.56 272 80 C219.2 80 166.4 80 112 80 C112 101.12 112 122.24 112 144 C75.04 144 38.08 144 0 144 C0 96.48 0 48.96 0 0 Z M16 16 C16 52.96 16 89.92 16 128 C42.4 128 68.8 128 96 128 C96 91.04 96 54.08 96 16 C69.6 16 43.2 16 16 16 Z " fill="#000000" transform="translate(8,184)"/>
<path d="M0 0 C52.8 0 105.6 0 160 0 C160 21.12 160 42.24 160 64 C107.2 64 54.4 64 0 64 C0 42.88 0 21.76 0 0 Z M16 16 C16 26.56 16 37.12 16 48 C58.24 48 100.48 48 144 48 C144 37.44 144 26.88 144 16 C101.76 16 59.52 16 16 16 Z " fill="#000000" transform="translate(312,40)"/>
<path d="M0 0 C79.2 0 158.4 0 240 0 C240 5.28 240 10.56 240 16 C160.8 16 81.6 16 0 16 C0 10.72 0 5.44 0 0 Z " fill="#000000" transform="translate(232,360)"/>
<path d="M0 0 C8.80288754 6.34043826 15.4186507 14.72648904 17.58203125 25.4921875 C18.92007691 37.90936834 17.85729499 48.88109459 10.39453125 59.2421875 C3.58210875 67.3274193 -4.72289951 73.55522767 -15.48876953 74.71533203 C-28.40007937 75.61089799 -39.16843729 74.04490094 -49.3515625 65.46484375 C-57.86959925 57.33325857 -62.42046403 48.68416257 -62.88867188 36.85693359 C-63.04371176 24.34263074 -60.22647828 14.71931927 -51.41796875 5.4921875 C-37.63784493 -7.66275112 -16.31305228 -10.17259803 0 0 Z M-42.19140625 21.6484375 C-46.12351302 27.55912028 -46.11660152 33.61334174 -45.41796875 40.4921875 C-43.64454442 47.13691664 -38.97130405 51.66586709 -33.41796875 55.4921875 C-27.41909871 58.43281007 -20.53513345 58.59102538 -14.10546875 56.875 C-7.97664014 54.16969675 -3.17844083 49.08355055 -0.24609375 43.1015625 C1.66008982 37.09528598 1.64641812 29.98927192 -0.91796875 24.1796875 C-4.39834133 18.24695275 -9.85358805 13.56055006 -16.41796875 11.4921875 C-28.14191837 10.06609888 -34.72539236 12.80600765 -42.19140625 21.6484375 Z " fill="#000000" transform="translate(406.41796875,221.5078125)"/>
<path d="M0 0 C68.64 0 137.28 0 208 0 C208 5.28 208 10.56 208 16 C139.36 16 70.72 16 0 16 C0 10.72 0 5.44 0 0 Z " fill="#000000" transform="translate(264,392)"/>
<path d="M0 0 C68.64 0 137.28 0 208 0 C208 5.28 208 10.56 208 16 C139.36 16 70.72 16 0 16 C0 10.72 0 5.44 0 0 Z " fill="#000000" transform="translate(264,120)"/>
<path d="M0 0 C15.84 0 31.68 0 48 0 C48 15.84 48 31.68 48 48 C32.16 48 16.32 48 0 48 C0 32.16 0 16.32 0 0 Z M16 16 C16 21.28 16 26.56 16 32 C21.28 32 26.56 32 32 32 C32 26.72 32 21.44 32 16 C26.72 16 21.44 16 16 16 Z " fill="#000000" transform="translate(424,424)"/>
<path d="M0 0 C15.84 0 31.68 0 48 0 C48 15.84 48 31.68 48 48 C32.16 48 16.32 48 0 48 C0 32.16 0 16.32 0 0 Z M16 16 C16 21.28 16 26.56 16 32 C21.28 32 26.56 32 32 32 C32 26.72 32 21.44 32 16 C26.72 16 21.44 16 16 16 Z " fill="#000000" transform="translate(360,424)"/>
<path d="M0 0 C15.84 0 31.68 0 48 0 C48 15.84 48 31.68 48 48 C32.16 48 16.32 48 0 48 C0 32.16 0 16.32 0 0 Z M16 16 C16 21.28 16 26.56 16 32 C21.28 32 26.56 32 32 32 C32 26.72 32 21.44 32 16 C26.72 16 21.44 16 16 16 Z " fill="#000000" transform="translate(296,424)"/>
<path d="M0 0 C15.84 0 31.68 0 48 0 C48 15.84 48 31.68 48 48 C32.16 48 16.32 48 0 48 C0 32.16 0 16.32 0 0 Z M16 16 C16 21.28 16 26.56 16 32 C21.28 32 26.56 32 32 32 C32 26.72 32 21.44 32 16 C26.72 16 21.44 16 16 16 Z " fill="#000000" transform="translate(232,424)"/>
<path d="M0 0 C15.84 0 31.68 0 48 0 C48 5.28 48 10.56 48 16 C32.16 16 16.32 16 0 16 C0 10.72 0 5.44 0 0 Z " fill="#000000" transform="translate(40,456)"/>
<path d="M0 0 C15.84 0 31.68 0 48 0 C48 5.28 48 10.56 48 16 C32.16 16 16.32 16 0 16 C0 10.72 0 5.44 0 0 Z " fill="#000000" transform="translate(40,424)"/>
<path d="M0 0 C15.84 0 31.68 0 48 0 C48 5.28 48 10.56 48 16 C32.16 16 16.32 16 0 16 C0 10.72 0 5.44 0 0 Z " fill="#000000" transform="translate(40,392)"/>
<path d="M0 0 C15.84 0 31.68 0 48 0 C48 5.28 48 10.56 48 16 C32.16 16 16.32 16 0 16 C0 10.72 0 5.44 0 0 Z " fill="#000000" transform="translate(40,280)"/>
<path d="M0 0 C15.84 0 31.68 0 48 0 C48 5.28 48 10.56 48 16 C32.16 16 16.32 16 0 16 C0 10.72 0 5.44 0 0 Z " fill="#000000" transform="translate(40,248)"/>
<path d="M0 0 C15.84 0 31.68 0 48 0 C48 5.28 48 10.56 48 16 C32.16 16 16.32 16 0 16 C0 10.72 0 5.44 0 0 Z " fill="#000000" transform="translate(40,216)"/>
<path d="M0 0 C15.84 0 31.68 0 48 0 C48 5.28 48 10.56 48 16 C32.16 16 16.32 16 0 16 C0 10.72 0 5.44 0 0 Z " fill="#000000" transform="translate(40,104)"/>
<path d="M0 0 C15.84 0 31.68 0 48 0 C48 5.28 48 10.56 48 16 C32.16 16 16.32 16 0 16 C0 10.72 0 5.44 0 0 Z " fill="#000000" transform="translate(40,72)"/>
<path d="M0 0 C15.84 0 31.68 0 48 0 C48 5.28 48 10.56 48 16 C32.16 16 16.32 16 0 16 C0 10.72 0 5.44 0 0 Z " fill="#000000" transform="translate(40,40)"/>
<path d="M0 0 C5.28 0 10.56 0 16 0 C16 5.28 16 10.56 16 16 C10.72 16 5.44 16 0 16 C0 10.72 0 5.44 0 0 Z " fill="#000000" transform="translate(232,392)"/>
<path d="M0 0 C5.28 0 10.56 0 16 0 C16 5.28 16 10.56 16 16 C10.72 16 5.44 16 0 16 C0 10.72 0 5.44 0 0 Z " fill="#000000" transform="translate(232,120)"/>
</svg>
